<svg width="56" height="56" viewBox="0 0 56 56" fill="none" xmlns="http://www.w3.org/2000/svg">
<path d="M38 54V44H46C47.0609 44 48.0783 43.5786 48.8284 42.8284C49.5786 42.0783 50 41.0609 50 40V24C49.9993 20.0901 48.9566 16.2511 46.9792 12.878C45.0019 9.50499 42.1613 6.71987 38.75 4.80936C35.3387 2.89884 31.4798 1.93197 27.5706 2.00828C23.6615 2.08459 19.8433 3.20131 16.5091 5.24349C13.175 7.28568 10.4453 10.1795 8.60105 13.6272C6.75684 17.0748 5.86475 20.9516 6.0166 24.8586C6.16846 28.7655 7.35878 32.5614 9.46504 35.8555C11.5713 39.1495 14.5174 41.8228 18 43.6V54" stroke="#000001" stroke-width="3" stroke-linecap="round" stroke-linejoin="round"/>
</svg>
