<svg width="56" height="56" viewBox="0 0 56 56" fill="none" xmlns="http://www.w3.org/2000/svg">
<path d="M21.5925 37.7879C20.2391 39.2236 18.5239 40.0305 16.7419 40.0697C15.4368 40.2247 14.1201 40.0205 12.8862 39.4717C11.6523 38.923 10.5317 38.0433 9.60464 36.8956C8.67756 35.7479 7.96694 34.3606 7.52367 32.8331C7.0804 31.3056 6.91545 29.6757 7.04063 28.06C6.91545 26.4443 7.0804 24.8144 7.52367 23.2869C7.96694 21.7594 8.67756 20.3721 9.60464 19.2244C10.5317 18.0767 11.6523 17.197 12.8862 16.6483C14.1201 16.0995 15.4368 15.8953 16.7419 16.0503C25.6347 16.0503 30.4853 40.0697 39.3781 40.0697C40.6832 40.2247 41.9999 40.0205 43.2338 39.4717C44.4677 38.923 45.5883 38.0433 46.5154 36.8956C47.4424 35.7479 48.1531 34.3606 48.5963 32.8331C49.0396 31.3056 49.2046 29.6757 49.0794 28.06C49.2046 26.4443 49.0396 24.8144 48.5963 23.2869C48.1531 21.7594 47.4424 20.3721 46.5154 19.2244C45.5883 18.0767 44.4677 17.197 43.2338 16.6483C41.9999 16.0995 40.6832 15.8953 39.3781 16.0503C37.6521 16.135 35.9998 16.9391 34.6892 18.3321" stroke="#000001" stroke-width="3" stroke-linecap="round" stroke-linejoin="round"/>
</svg>
