<svg width="28" height="28" viewBox="0 0 28 28" fill="none" xmlns="http://www.w3.org/2000/svg">
<path d="M25.9331 0H2.06694C1.51876 0 0.993022 0.217767 0.605394 0.605394C0.217767 0.993022 0 1.51876 0 2.06694V25.9331C0 26.4812 0.217767 27.007 0.605394 27.3946C0.993022 27.7822 1.51876 28 2.06694 28H25.9331C26.4812 28 27.007 27.7822 27.3946 27.3946C27.7822 27.007 28 26.4812 28 25.9331V2.06694C28 1.51876 27.7822 0.993022 27.3946 0.605394C27.007 0.217767 26.4812 0 25.9331 0ZM8.34556 21.7476C8.34556 22.9101 7.40318 23.8525 6.24069 23.8525C5.07821 23.8525 4.13583 22.9101 4.13583 21.7476V12.5854C4.13583 11.4229 5.07821 10.4806 6.24069 10.4806C7.40318 10.4806 8.34556 11.4229 8.34556 12.5854V21.7476ZM6.23778 8.6275C5.76026 8.62481 5.29423 8.48073 4.89852 8.21344C4.50281 7.94614 4.19515 7.56762 4.01436 7.12564C3.83357 6.68365 3.78776 6.19802 3.8827 5.73003C3.97765 5.26204 4.2091 4.83266 4.54785 4.49608C4.88659 4.1595 5.31745 3.93081 5.78604 3.83887C6.25464 3.74693 6.73996 3.79586 7.18078 3.97948C7.62159 4.16311 7.99813 4.47319 8.26288 4.87061C8.52762 5.26803 8.66871 5.73497 8.66833 6.2125C8.67284 6.53221 8.61293 6.84955 8.49218 7.14561C8.37143 7.44166 8.19231 7.71038 7.9655 7.93574C7.73869 8.16111 7.46882 8.3385 7.17199 8.45734C6.87517 8.57619 6.55745 8.63406 6.23778 8.6275ZM23.8627 21.7605C23.8624 22.9224 22.9205 23.8642 21.7586 23.8642C20.5965 23.8642 19.6544 22.9221 19.6544 21.76V16.5589C19.6544 14.4044 18.7386 13.7394 17.5564 13.7394C16.3081 13.7394 15.0831 14.6806 15.0831 16.6133V21.7593C15.0831 22.9218 14.1407 23.8642 12.9782 23.8642C11.8157 23.8642 10.8733 22.9218 10.8733 21.7593V12.5144C10.8733 11.3965 11.7796 10.4903 12.8975 10.4903H13.9951C14.5068 10.4903 14.9217 10.9051 14.9217 11.4168V12.3098C14.9217 12.3283 14.9367 12.3433 14.9552 12.3433C14.968 12.3433 14.9794 12.3365 14.9852 12.3251C15.4034 11.5003 16.8218 10.115 18.9778 10.115C21.3267 10.115 23.8642 11.5092 23.8642 15.5925L23.8627 21.7605Z" fill="black"/>
</svg>
