<svg width="28" height="28" viewBox="0 0 28 28" fill="none" xmlns="http://www.w3.org/2000/svg">
<path d="M8.80544 23C19.3715 23 25.1507 15.6895 25.1507 9.34987C25.1507 9.32923 25.1507 9.3086 25.1507 9.28798C25.1504 8.94571 25.3209 8.62038 25.6051 8.42966C26.1388 8.07151 26.6333 7.6752 27.0832 7.24548C27.3591 6.98195 27.0839 6.55276 26.7143 6.64737C26.3098 6.7509 26.0423 6.09791 26.3238 5.78955C26.4381 5.66434 26.5451 5.53442 26.6443 5.40024C26.8988 5.05604 26.5211 4.67775 26.1209 4.82988C25.4926 5.06877 24.8394 5.26011 24.1691 5.40139C23.797 5.47985 23.4179 5.35857 23.1074 5.13882C22.315 4.57792 21.352 4.20445 20.3189 4.06315C19.0712 3.89249 17.791 4.07 16.6763 4.56819C15.5616 5.06639 14.6746 5.8575 14.1525 6.8191C13.4059 8.19437 12.179 9.81761 10.6472 9.4976C9.46739 9.25112 8.32105 8.89455 7.23036 8.43279C6.3764 8.07125 5.56455 7.64863 4.80338 7.17068C3.19099 6.15824 0.810149 6.537 1.31962 8.37146C1.48977 8.98414 1.80061 9.55706 2.2282 10.0613C2.55205 10.4433 2.29568 11.1102 1.8197 10.9547C1.59941 10.8827 1.38414 10.7992 1.17523 10.7044C1.14942 10.6927 1.12 10.7114 1.12 10.7398C1.12036 11.8474 1.57949 12.9208 2.41952 13.778C2.83643 14.2034 3.33443 14.5625 3.88927 14.8432C4.26517 15.0334 4.22121 15.6243 3.80073 15.5986C3.50454 15.5804 3.27496 15.8708 3.42257 16.1283C3.82451 16.8293 4.42599 17.4414 5.17911 17.9089C6.07903 18.4676 6.35513 20.0178 5.34221 20.3275C5.0616 20.4133 4.77667 20.4901 4.48802 20.5576C3.53284 20.781 3.25796 22.2151 4.21081 22.4483C5.69558 22.8116 7.24239 22.998 8.80544 22.9963" fill="black"/>
</svg>
